PathFileType	4	(X/Y/Z)	RBDS022static.trc
DataRate	CameraRate	NumFrames	NumMarkers	Units	OrigDataRate	OrigDataStartFrame	OrigNumFrames
150.000000	150.000000	4	48	mm	150.000000	37	150
Frame#	Time	L.Ankle			L.Ankle.Medial			L.ASIS			L.GTR			L.Heel.Bottom			L.Heel.Lateral			L.Heel.Top			L.HF			L.Iliac.Crest			L.Knee			L.Knee.Medial			L.MT1			L.MT2			L.MT5			L.PSIS			L.Shank.Bottom.Lateral			L.Shank.Bottom.Medial			L.Shank.Top.Lateral			L.Shank.Top.Medial			L.Thigh.Bottom.Lateral			L.Thigh.Bottom.Medial			L.Thigh.Top.Lateral			L.Thigh.Top.Medial			L.TT			R.Ankle			R.Ankle.Medial			R.ASIS			R.GTR			R.Heel.Bottom			R.Heel.Lateral			R.Heel.Top			R.HF			R.Iliac.Crest			R.Knee			R.Knee.Medial			R.MT1			R.MT2			R.MT5			R.PSIS			R.Shank.Bottom.Lateral			R.Shank.Bottom.Medial			R.Shank.Top.Lateral			R.Shank.Top.Medial			R.Thigh.Bottom.Lateral			R.Thigh.Bottom.Medial			R.Thigh.Top.Lateral			R.Thigh.Top.Medial			R.TT			
		X1	Y1	Z1	X2	Y2	Z2	X3	Y3	Z3	X4	Y4	Z4	X5	Y5	Z5	X6	Y6	Z6	X7	Y7	Z7	X8	Y8	Z8	X9	Y9	Z9	X10	Y10	Z10	X11	Y11	Z11	X12	Y12	Z12	X13	Y13	Z13	X14	Y14	Z14	X15	Y15	Z15	X16	Y16	Z16	X17	Y17	Z17	X18	Y18	Z18	X19	Y19	Z19	X20	Y20	Z20	X21	Y21	Z21	X22	Y22	Z22	X23	Y23	Z23	X24	Y24	Z24	X25	Y25	Z25	X26	Y26	Z26	X27	Y27	Z27	X28	Y28	Z28	X29	Y29	Z29	X30	Y30	Z30	X31	Y31	Z31	X32	Y32	Z32	X33	Y33	Z33	X34	Y34	Z34	X35	Y35	Z35	X36	Y36	Z36	X37	Y37	Z37	X38	Y38	Z38	X39	Y39	Z39	X40	Y40	Z40	X41	Y41	Z41	X42	Y42	Z42	X43	Y43	Z43	X44	Y44	Z44	X45	Y45	Z45	X46	Y46	Z46	X47	Y47	Z47	X48	Y48	Z48	

38	0.2466666666666667	707.4520263671875	106.5269241333008	1036.203247070313	725.9339599609375	126.5834503173828	1120.850830078125	844.3694458007813	1006.060546875	1098.233276367188	764.57421875	903.2708129882813	1034.45263671875	636.0338745117188	38.47448348999023	1086.987426757813	666.4334106445313	60.86985778808594	1041.64794921875	643.7793579101563	84.0543212890625	1088.23291015625	740.105224609375	471.6756896972656	1039.557495117188	758.2447509765625	1076.982299804688	1049.221069335938	746.366455078125	540.459716796875	1043.5224609375	743.9031982421875	519.8048095703125	1168.272338867188	854.3814086914063	57.90036010742188	1123.176635742188	861.6477661132813	68.00315856933594	1076.385009765625	821.305908203125	47.03670501708984	1010.179260253906	670.7342529296875	1030.236572265625	1171.803833007813	696.1261596679688	190.72900390625	1030.0185546875	658.1798706054688	192.3069152832031	1070.203369140625	689.4319458007813	270.4349060058594	1020.929382324219	652.5253295898438	272.9513244628906	1060.094360351563	744.6215209960938	646.1563720703125	1030.897583007813	686.0253295898438	654.5505981445313	1074.112060546875	748.9287719726563	755.10498046875	1018.226196289063	695.1931762695313	762.6255493164063	1062.081298828125	790.6143188476563	446.8980712890625	1091.15625	701.0299072265625	108.4591751098633	1415.16162109375	725.08251953125	128.7641143798828	1330.679443359375	836.3005981445313	1006.596984863281	1336.533325195313	765.6405029296875	908.5549926757813	1393.211059570313	631.3285522460938	40.0501708984375	1367.374755859375	663.1509399414063	60.56415557861328	1411.353271484375	638.9534912109375	83.51374816894531	1366.938232421875	750.4075317382813	473.8361206054688	1400.267456054688	767.6537475585938	1074.376220703125	1376.7138671875	757.3944091796875	535.9338989257813	1395.5576171875	755.7713623046875	519.9442749023438	1271.508666992188	840.7088012695313	56.18928909301758	1319.987915039063	857.8867797851563	71.14054870605469	1373.978515625	823.6011352539063	49.17339324951172	1435.560791015625	672.521728515625	1030.807739257813	1257.017578125	687.116943359375	187.9570922851563	1416.498168945313	655.7216796875	195.1830596923828	1376.70703125	693.7657470703125	272.2924194335938	1425.8896484375	657.855712890625	275.6443481445313	1386.038818359375	757.0444946289063	636.4218139648438	1406.254638671875	697.19189453125	641.0918579101563	1366.776733398438	760.0463256835938	746.8477172851563	1413.321533203125	701.5079345703125	750.5474853515625	1377.810668945313	799.3208618164063	449.2628784179688	1357.828857421875	
39	0.2533333333333334	707.4574584960938	106.5331726074219	1036.205810546875	725.9398193359375	126.5786972045898	1120.858764648438	844.3675537109375	1006.0517578125	1098.2392578125	764.5820922851563	903.2578125	1034.45263671875	636.0360107421875	38.48317337036133	1086.993041992188	666.4261474609375	60.87747192382813	1041.651733398438	643.7772216796875	84.05703735351563	1088.231079101563	740.1253051757813	471.670166015625	1039.571411132813	758.245849609375	1076.986572265625	1049.223022460938	746.3779907226563	540.455078125	1043.534301757813	743.901123046875	519.7996215820313	1168.286010742188	854.3819580078125	57.89010620117188	1123.188110351563	861.651611328125	67.99929046630859	1076.394653320313	821.3026123046875	47.04122161865234	1010.188781738281	670.7357788085938	1030.239868164063	1171.80615234375	696.1251831054688	190.7269744873047	1030.024536132813	658.1853637695313	192.3073883056641	1070.216796875	689.4464721679688	270.4286499023438	1020.951965332031	652.5357055664063	272.9490966796875	1060.100708007813	744.6172485351563	646.159423828125	1030.905151367188	686.0367431640625	654.5480346679688	1074.122192382813	748.9312133789063	755.1036987304688	1018.2373046875	695.1932983398438	762.6314086914063	1062.096801757813	790.6511840820313	446.9013977050781	1091.169067382813	701.02392578125	108.458366394043	1415.17333984375	725.0635375976563	128.5912628173828	1331.0009765625	836.29931640625	1006.59423828125	1336.55859375	765.6317138671875	908.5593872070313	1393.216064453125	631.326904296875	40.04657745361328	1367.36572265625	663.152099609375	60.57002258300781	1411.356079101563	638.94677734375	83.50732421875	1366.93505859375	750.4066772460938	473.8368225097656	1400.257080078125	767.6701049804688	1074.376831054688	1376.736328125	757.390869140625	535.9306640625	1395.571899414063	755.7725219726563	519.9472045898438	1271.517822265625	840.7115478515625	56.18474960327148	1320.002075195313	857.8864135742188	71.13822174072266	1373.98583984375	823.6011352539063	49.17168045043945	1435.566284179688	672.5277099609375	1030.820556640625	1257.013549804688	687.1118774414063	187.9523468017578	1416.495361328125	655.719970703125	195.1861419677734	1376.711791992188	693.7554321289063	272.2967224121094	1425.892700195313	657.850830078125	275.6451416015625	1386.0419921875	757.0404052734375	636.431640625	1406.263916015625	697.1876220703125	641.0935668945313	1366.796630859375	760.0333862304688	746.8394775390625	1413.331176757813	701.5084228515625	750.5367431640625	1377.794799804688	799.32373046875	449.2623596191406	1357.831909179688	
40	0.26	707.4568481445313	106.5346298217773	1036.2099609375	725.9755859375	126.5556335449219	1120.870239257813	844.3858642578125	1006.05029296875	1098.25439453125	764.5844116210938	903.2559204101563	1034.462768554688	636.0355834960938	38.48197555541992	1086.997192382813	666.4330444335938	60.87998580932617	1041.65380859375	643.7777099609375	84.06495666503906	1088.240600585938	740.1345825195313	471.667236328125	1039.570556640625	758.262451171875	1076.975830078125	1049.237670898438	746.4061279296875	540.4534912109375	1043.537231445313	743.9132690429688	519.8005981445313	1168.291870117188	854.3812866210938	57.88745880126953	1123.190185546875	861.6516723632813	68.02497863769531	1076.429443359375	821.3017578125	47.04015350341797	1010.191650390625	670.732421875	1030.232421875	1171.81591796875	696.129150390625	190.7350463867188	1030.03564453125	658.1900024414063	192.3112640380859	1070.20361328125	689.451171875	270.4299621582031	1020.954772949219	652.541748046875	272.9548034667969	1060.1123046875	744.6441650390625	646.1468505859375	1030.912353515625	686.0464477539063	654.5394897460938	1074.121826171875	748.9453125	755.097900390625	1018.240417480469	695.1891479492188	762.6197509765625	1062.091186523438	790.6326293945313	446.8957214355469	1091.18017578125	701.0297241210938	108.4619827270508	1415.175537109375	725.0556030273438	128.5872955322266	1330.9970703125	836.288330078125	1006.598999023438	1336.561889648438	765.6148681640625	908.5573120117188	1393.219970703125	631.321533203125	40.04464340209961	1367.3857421875	663.145751953125	60.56348419189453	1411.348266601563	638.946533203125	83.50954437255859	1366.931884765625	750.400146484375	473.8337707519531	1400.268798828125	767.6766967773438	1074.376708984375	1376.71484375	757.3921508789063	535.9313354492188	1395.568359375	755.7653198242188	519.9453125	1271.51953125	840.7160034179688	56.17925643920898	1319.998779296875	857.881103515625	71.13311004638672	1373.985229492188	823.5983276367188	49.17253875732422	1435.561767578125	672.5151977539063	1030.81982421875	1257.025512695313	687.1177368164063	187.9530181884766	1416.498657226563	655.7149658203125	195.1748046875	1376.710205078125	693.7525634765625	272.2934265136719	1425.896484375	657.8375244140625	275.6421508789063	1386.047241210938	757.0361938476563	636.4276123046875	1406.275268554688	697.1884765625	641.0895385742188	1366.77294921875	760.0280151367188	746.8314819335938	1413.346435546875	701.4947509765625	750.5355224609375	1377.801025390625	799.315673828125	449.2547607421875	1357.830078125	
41	0.2666666666666667	707.46533203125	106.549934387207	1036.211059570313	725.9778442382813	126.5521697998047	1120.877563476563	844.3749389648438	1006.052795410156	1098.26220703125	764.5833129882813	903.2623901367188	1034.472900390625	636.0361328125	38.48260498046875	1086.9990234375	666.421875	60.88615798950195	1041.656860351563	643.7752075195313	84.06204986572266	1088.242431640625	740.1504516601563	471.6700744628906	1039.579833984375	758.2548828125	1076.971313476563	1049.231811523438	746.4158325195313	540.4481201171875	1043.540405273438	743.9480590820313	519.7860107421875	1168.295166015625	854.3895263671875	57.88925552368164	1123.189697265625	861.658935546875	68.01570892333984	1076.432495117188	821.3054809570313	47.04395294189453	1010.189147949219	670.7278442382813	1030.235595703125	1171.809936523438	696.1328125	190.7360992431641	1030.040405273438	658.2054443359375	192.3112335205078	1070.21533203125	689.4652709960938	270.4351501464844	1020.959777832031	652.5484619140625	272.95947265625	1060.109375	744.6460571289063	646.111083984375	1030.911865234375	686.0565185546875	654.5346069335938	1074.131469726563	748.9503173828125	755.0917358398438	1018.250427246094	695.2059326171875	762.6148071289063	1062.085327148438	790.6714477539063	446.8955078125	1091.185546875	701.0294799804688	108.4629974365234	1415.178100585938	725.0501708984375	128.5914611816406	1330.999267578125	836.2766723632813	1006.603698730469	1336.58642578125	765.6077270507813	908.5575561523438	1393.228759765625	631.3291015625	40.04887008666992	1367.376098632813	663.1455688476563	60.55905532836914	1411.34521484375	638.9473266601563	83.51235961914063	1366.9423828125	750.4021606445313	473.8192138671875	1400.274169921875	767.6668701171875	1074.369750976563	1376.724243164063	757.3949584960938	535.9220581054688	1395.58203125	755.7921142578125	519.9443969726563	1271.529296875	840.7117919921875	56.18271255493164	1320.01806640625	857.8883666992188	71.14028167724609	1373.98974609375	823.5969848632813	49.17124176025391	1435.567016601563	672.5133056640625	1030.8134765625	1257.021484375	687.1132202148438	187.9475555419922	1416.497314453125	655.7201538085938	195.17138671875	1376.706298828125	693.7468872070313	272.2947082519531	1425.886596679688	657.8406372070313	275.6405334472656	1386.04443359375	757.0387573242188	636.4260864257813	1406.27685546875	697.1817626953125	641.0953979492188	1366.785522460938	760.0213012695313	746.8410034179688	1413.35009765625	701.498291015625	750.5370483398438	1377.813354492188	799.3151245117188	449.2529602050781	1357.844360351563	
